<?xml version="1.0" encoding="UTF-8"?>
<svg xmlns="http://www.w3.org/2000/svg" onmouseup="{ if(window.parent.document.onmouseup) window.parent.document.onmouseup(arguments[0]);}" xml:space="preserve" style="enable-background:new 0 0 1024 627;" viewBox="0 0 1024 627" y="0px" x="0px" id="Layer_1" version="1.1" xmlns:xlink="http://www.w3.org/1999/xlink"><style type="text/css">
	.st0{fill:#00142C;}
	.st1{fill:#03A6FF;}
	.st2{opacity:0.3;fill:#03A6FF;}
	.st3{fill:none;}
	.st4{opacity:0.3;fill:#00558D;}
</style><rect data-cppathid="10000" height="626.5" width="1024" class="st0" y="0.5"/><g><polygon data-cppathid="10001" points="13.5,595.9 41.6,595.9 13.5,567.8  " class="st1"/><polygon data-cppathid="10002" points="200.1,566.7 175.3,591.4 56.7,591.4 18,552.6 18,425.8 37.6,406.2 37.6,157.6 18,138 18,39 51.8,39    200,39 219.9,19.1 590.2,19.1 590.2,14.6 218,14.6 218,14.6 197.6,14.6 182.4,29.8 19.8,29.8 18.1,29.9 13.5,34.5 198.2,34.5    215.2,17.4 198.2,34.5 13.5,34.5 13.5,139.9 33.1,159.4 33.1,404.4 13.5,423.9 13.5,554.5 54.9,595.9 177.2,595.9 177.2,595.9    196,595.9 220.7,571.2 594.9,571.2 590.2,566.7  " class="st1"/><polygon data-cppathid="10003" points="28.7,382.6 13.5,397.8 13.5,413.7 28.7,398.5  " class="st1"/><polygon data-cppathid="10004" points="28.7,358 13.5,373.1 13.5,389 28.7,373.8  " class="st1"/><polygon data-cppathid="10005" points="28.7,333.3 13.5,348.5 13.5,364.4 28.7,349.2  " class="st1"/><polygon data-cppathid="10006" points="28.7,308.6 13.5,323.8 13.5,339.7 28.7,324.5  " class="st1"/><polygon data-cppathid="10007" points="28.7,284 13.5,299.2 13.5,315 28.7,299.9  " class="st1"/><polygon data-cppathid="10008" points="28.7,259.3 13.5,274.5 13.5,290.4 28.7,275.2  " class="st1"/><polygon data-cppathid="10009" points="28.7,234.7 13.5,249.8 13.5,265.7 28.7,250.5  " class="st1"/><polygon data-cppathid="10010" points="28.7,210 13.5,225.2 13.5,241.1 28.7,225.9  " class="st1"/><polygon data-cppathid="10011" points="28.7,185.3 13.5,200.5 13.5,216.4 28.7,201.2  " class="st1"/><polygon data-cppathid="10012" points="28.7,162.9 13.5,147.7 13.5,191.7 28.7,176.6  " class="st1"/><polygon data-cppathid="10013" points="51.8,508 51.8,39 18,39 18,138 37.6,157.6 37.6,406.2 18,425.8 18,552.6 56.7,591.4 175.3,591.4    200.1,566.7 110.4,566.7  " class="st2"/><rect data-cppathid="10014" height="0" width="151.4" class="st3" transform="matrix(0.8 -0.6 0.6 0.8 -8.9153 652.5599)" y="339.7" x="898.7"/><polygon data-cppathid="10015" points="838.2,35.8 817,14.6 795.6,14.6 816.9,35.8  " class="st1"/><polygon data-cppathid="10016" points="870.5,35.8 849.3,14.6 827.9,14.6 849.2,35.8  " class="st1"/><polygon data-cppathid="10017" points="902.8,35.8 881.6,14.6 860.3,14.6 881.5,35.8  " class="st1"/><polygon data-cppathid="10018" points="935.1,35.8 913.9,14.6 892.6,14.6 913.8,35.8  " class="st1"/><polygon data-cppathid="10019" points="967.4,35.8 946.2,14.6 924.9,14.6 946.1,35.8  " class="st1"/><path data-cppathid="10020" d="M975.7,41.2H811.1l-26.6-26.6H590.2v4.5h192.5l26.6,26.6h103.1h61.6l36.8,36.8v139l-40.7,40.7v155.1l14.9,14.9   v175.1H732.2l-40.5-40.5H590.2v4.5H614l4.3,4.3H673l36.2,36.2h21.2c0,0,0,0,0,0h259V430.2l0,0v-50.8l9.4-9.4V239.7l0,0l16.4-16.4   V80.6L975.7,41.2z M974.4,415.3L974.4,415.3l0-151.4l0,0V415.3z" class="st1"/><polygon data-cppathid="10021" points="969.9,262.1 1010.6,221.4 1010.6,82.4 973.8,45.7 912.3,45.7 969.9,103.3  " class="st2"/><polygon data-cppathid="10022" points="969.9,417.2 969.9,262.1 969.9,103.3 912.3,45.7 809.2,45.7 782.7,19.1 590.2,19.1 219.9,19.1 200,39    51.8,39 51.8,508 110.4,566.7 200.1,566.7 590.2,566.7 691.7,566.7 732.2,607.1 984.8,607.1 984.8,432.1  " class="st4"/></g></svg>