<?xml version="1.0" encoding="UTF-8"?>
<svg xmlns="http://www.w3.org/2000/svg" onmouseup="{ if(window.parent.document.onmouseup) window.parent.document.onmouseup(arguments[0]);}" xml:space="preserve" style="enable-background:new 0 0 128 128;" viewBox="0 0 128 128" y="0px" x="0px" id="Layer_1" version="1.1" xmlns:xlink="http://www.w3.org/1999/xlink"><style type="text/css">
	.st0{fill:#03A6FF;}
</style><g transform="translate(0 -924.36)"><path data-cppathid="10000" d="M67.2,1046.3c0-0.9,1.6-1.3,2.1-0.5c0.3,0.5-0.1,0.8-0.8,0.8S67.2,1046.6,67.2,1046.3z M58,1044.6   c0-0.7,0.4-1.1,0.8-0.8s0.8,0.9,0.8,1.3s-0.4,0.8-0.8,0.8S58,1045.3,58,1044.6z M63.8,1045.1c0-0.8,2-1.8,3.6-1.7   c0.5,0,0.2,0.6-0.6,1.3C65,1046,63.8,1046.2,63.8,1045.1z M75.5,1043.5c0-0.4,1.5-1.4,3.3-2.2s3.9-2.2,4.7-3c1.7-1.9,2.5-2,2.5-0.3   c0,0.7-0.5,1.3-1.1,1.3s-2.7,1.1-4.8,2.5C76.3,1044.3,75.5,1044.7,75.5,1043.5z M79.7,1043.4c0-0.5,0.6-0.8,1.3-0.8   s1.1,0.4,0.8,0.8s-0.9,0.8-1.3,0.8S79.7,1043.8,79.7,1043.4z M86,1043.5c-0.3-0.4,0.1-1,0.8-1.2c0.8-0.3,1.2,0,1.2,0.7   C88,1044.3,86.7,1044.6,86,1043.5L86,1043.5z M59.4,1042.7c-0.2-0.4,0.9-0.5,2.5-0.3s2.9,0.5,2.9,0.7   C64.7,1043.7,59.8,1043.4,59.4,1042.7z M71.7,1042.1c0.9-0.7,2-1.2,2.4-1.2c1.1,0,8.9-5.2,8.9-5.9c0-0.3,0.9-1,2.1-1.5   s2.1-0.8,2.1-0.6c0,0.7-3.6,4.6-4.3,4.6c-0.4,0-2.4,1.1-4.6,2.5s-4.2,2.3-4.6,2.1s-0.9,0-1.2,0.4s-1,0.8-1.5,0.8   S70.8,1042.8,71.7,1042.1L71.7,1042.1z M56.1,1042c-0.8-0.2-1.5-0.7-1.5-1.1s0.8-0.5,1.7-0.3s1.7,0.8,1.7,1.2s-0.1,0.7-0.2,0.6   S56.9,1042.2,56.1,1042z M66.3,1041.7c0-0.5,0.4-0.8,0.8-0.8s0.8,0.4,0.8,0.8s-0.4,0.8-0.8,0.8S66.3,1042.2,66.3,1041.7z    M89.7,1041.7c0-1.1,1.5-1.8,2-1c0.3,0.4-0.1,1-0.8,1.2S89.7,1042.1,89.7,1041.7L89.7,1041.7z M68.6,1040.6c-0.3-0.7-1.4-1-3.2-0.8   c-2.1,0.2-2.4,0.1-1.2-0.4c1.6-0.7,1.5-0.7-0.2-1.2c-1.2-0.3-1.8-0.1-1.8,0.7c0,1.6-4.1,1.2-4.6-0.5c-0.5-1.5-8.8-6.1-8.8-4.9   c0,0.4,1.5,1.5,3.3,2.4c3.3,1.7,5,3.4,3.5,3.4c-0.5,0-1.1-0.4-1.4-0.8s-1.2-0.8-2-0.8s-2.2-0.7-3.1-1.5s-3-2.5-4.7-3.8   s-3.1-2.7-3.1-3.2s1.4,0.3,3,1.8s3.3,2.4,3.5,2.1s-0.2-1.1-1.1-1.7c-2.4-1.6-4.6-3.9-5.5-5.6c-1.4-2.5,0.7-1.7,2.8,1.1   c1,1.4,3.6,3.6,5.7,4.7s4.3,2.5,4.9,3s1.6,0.9,2.2,1s2.6,0.4,4.5,0.6c3.3,0.5,6.7,1.9,7.7,3.3c0.8,1,2.5-0.2,1.9-1.3   c-0.3-0.5-0.2-0.7,0.4-0.3c0.7,0.4,0.7,1.1,0.1,2.2C70.3,1042,69.2,1042.2,68.6,1040.6L68.6,1040.6z M60.5,1037.5   c-2-1.2-3-0.9-1.2,0.4c0.9,0.7,1.8,1,2,0.8S61.2,1037.9,60.5,1037.5L60.5,1037.5z M51.7,1040c-0.3-0.5-1.1-0.7-1.8-0.4   s-1,0.1-0.7-0.3s-0.3-1-1.3-1.3c-1.7-0.5-4.9-3.3-4.9-4.2c0-0.5,3.3,1.3,4.7,2.6c0.6,0.5,2.2,1.5,3.6,2.1s2.5,1.4,2.5,1.7   C53.8,1041.2,52.3,1041,51.7,1040z M73.8,1038.8c0.9-1,0.8-1.3-0.1-1.3c-0.7,0-1.6-0.4-2.2-1c-0.8-0.8-0.4-1.3,1.5-2.5   c2.9-1.7,3.3-1.8,3.3-0.7c0,0.5-0.9,1.1-2.1,1.3s-2.1,0.9-2.1,1.3c0,1.4,2,0.7,4.3-1.5c1.3-1.2,2.3-1.8,2.3-1.3s-1,1.7-2.3,2.6   s-1.9,1.7-1.4,1.7s2.2-1.1,3.8-2.5s2.4-2.3,1.9-2.1c-1.2,0.6-2.3-0.9-1.1-1.6c1.4-0.8,3.3-5.1,3.8-8.4c0.4-2.3,0.2-2.9-0.5-2.4   s-0.9-0.1-0.5-2.6c0.3-1.8,0.5-4.1,0.5-5.1s0.4-1.9,0.9-1.9c0.5,0,0.7,0.7,0.4,1.7c-0.3,1-0.2,1.7,0.5,1.7c1.2,0,0.5-9-0.8-10.3   c-0.5-0.5-0.9-1.7-0.9-2.7c0-1.8-2.9-9.6-6.1-16.3c-2.3-4.9-7.3-10-10.3-10.5c-5.9-1.1-12.1,2.9-14.9,9.5   c-1.8,4.2-1.6,14.2,0.3,17.2c0.3,0.5,0.6,1.3,0.7,1.9s1.4,2.7,2.9,4.7c2.4,3.3,3.1,3.7,5.3,3.5c1.4-0.2,2.9-0.3,3.4-0.4   c0.9-0.1,2.8-3.6,2.8-5.2c0-0.5-1.1,0.3-2.5,1.8c-2.4,2.6-4.6,2.8-3.7,0.4c0.3-0.7,0-1.2-0.6-1.2c-0.6,0-1.8-0.6-2.6-1.4   c-0.9-0.8-1.5-1-1.5-0.4c0,0.5,0.8,1.4,1.7,2s1.7,1.3,1.7,1.7s-0.8,0.1-1.8-0.5c-2.1-1.5-4.3-5.4-3.6-6.5c0.7-1.2,2,0,1.5,1.4   c-0.3,0.8-0.1,1.1,0.7,0.8c0.7-0.3,1.7,0.1,2.3,0.8c1.5,1.9,6.6,1.7,6.6-0.2c0-0.8,0.3-3.2,0.8-5.3c1.1-5.5-1.8-13.2-5.1-13.2   c-0.4,0-0.4,0.4-0.2,0.8s0.1,0.8-0.4,0.8s-1.1,1.5-1.4,3.3s-0.9,3.3-1.3,3.3s-0.6-0.3-0.3-0.8s0.1-1-0.4-1.3s-0.6-1-0.2-1.5   c0.9-1.5,1-3.1,0.2-3.1c-0.4,0-0.8,0.8-0.8,1.7s-0.4,1.7-0.9,1.7c-1.1,0-0.1-5.3,1-5.7c0.4-0.2,0.6-0.6,0.4-0.9s0.5-1.7,1.5-2.9   c2.2-2.7,5.9-3.5,8.6-1.7c2.9,1.9,4.1,1.4,1.9-0.9c-1.6-1.7-2.5-2-4.9-1.6c-3.9,0.6-6.6,2.4-8.3,5.4c-0.8,1.3-1.7,2.4-2.1,2.4   s-0.3-0.5,0.2-1.1s0.7-1.3,0.5-1.6c-0.6-0.6,6-6.5,7.3-6.6c0.6,0,2-0.2,3.1-0.3c1.9-0.2,3.3,0.7,8.7,6c1.4,1.3,4.3,7,5.9,11.4   c0.5,1.3,0.4,1.4-0.7,0.5c-0.7-0.6-1.3-1.6-1.3-2.3c0-1.6-4.9-10.2-5.8-10.2c-1.5,0-1.5,2.4-0.1,2.7c1.6,0.4,4.7,6.5,6.3,12.1   c0.3,1,0.9,1.9,1.3,1.9s0.5-0.6,0.3-1.3s-0.1-1.3,0.4-1.3c0.8,0,1.8,2.7,2.3,5.8c0.1,0.7,0.5,2.3,0.8,3.7c0.5,1.7,0.4,2.3-0.3,1.8   c-0.5-0.3-1.2-2.1-1.5-3.9s-0.8-3.5-1.2-3.7c-1.2-0.7-0.5,3.3,1.1,6.1c1.8,3.3,1.9,6.6,0.3,8.2c-0.7,0.7-1.3,1.9-1.3,2.8   c0,1.1-0.4,1.4-1.7,1.1c-1.2-0.3-1.7,0-1.7,1c0,1.3,0.2,1.3,1.4,0.3c1.2-1,1.3-1,1,0.1c-0.2,0.7-1.1,1.2-1.9,1.1   c-0.8-0.1-2.1,0.9-2.8,2.2c-1.6,2.7-5.4,4.1-10.1,3.8c-7.1-0.6-16.2-10-17.3-17.9c-0.3-1.8-0.2-1.9,0.6-0.6   c0.5,0.8,0.7,1.8,0.4,2.3s-0.2,0.8,0.2,0.8s1.7,1.9,3,4.1c3.6,6.4,7.8,9.3,14,9.6c4.9,0.3,5.2,0.2,8-2.6c1.6-1.6,2.9-3.7,2.9-4.6   c0-1.3-0.7-0.8-2.7,2c-2.3,3-3.3,3.7-6,3.9c-1.8,0.1-4.1,0-5.2-0.2c-2.5-0.6-7.4-4.9-10.5-9.1c-2.9-4-3.1-6-0.3-2.7   c1.1,1.3,2.1,2.7,2.1,3c0,1.1,5.6,6.7,6.1,6.1c0.3-0.3,0.6-0.1,0.6,0.4c0,1.4,5.6,2.2,7,1.1c0.6-0.5,1.8-0.7,2.6-0.4   c1,0.4,1.3,0.3,0.9-0.4c-0.7-1.2-3.6-1.3-4-0.2c-0.4,1-6.4-1.1-8.1-2.9c-1.2-1.3-1.2-1.3,0.7-0.3c3.3,1.8,6.7,1.9,8.4,0.3   c1-0.9,1.6-1.1,1.6-0.4c0,0.6,0.4,0.8,0.8,0.5s0.8-0.9,0.8-1.4s-0.4-0.6-0.8-0.3c-0.9,0.6-1.2-0.6-0.3-1.5c1.1-1.1,2.7,1.5,1.8,3   c-1.4,2.7-0.1,2.5,1.5-0.2c0.8-1.4,2-2.6,2.6-2.6s1.1-0.4,1.1-0.8s0.4-0.8,0.9-0.8c0.5,0,0.7,0.7,0.4,1.7c-0.3,0.9-0.2,1.7,0.3,1.7   c1.1,0,2.2-4.7,1.9-8.3c-0.3-3.9-0.8-5.2-1.8-4.6c-0.5,0.3-0.8-0.6-0.8-2.2c0-3.5-3-12.3-5.2-14.9l-1.6-2l1.3,2.9   c0.7,1.6,1.6,3.5,2,4.2c0.8,1.5,1.5,4.6,2.1,10.1c0.4,3.3,0.2,3.9-1.1,4.3c-1.6,0.4-1.9,1.4-1.9,6.3c0,1.5-0.4,2.7-0.9,2.7   s-0.6-0.4-0.2-1c0.4-0.6,0.2-0.7-0.5-0.3c-0.8,0.5-0.9,0.2-0.3-1.3c0.9-2.5,0.6-14.1-0.4-15.1c-0.4-0.4-0.6,0.3-0.4,1.7   c0.2,1.3,0,2.6-0.4,2.9s-0.8-0.5-0.8-1.8s-0.3-3.7-0.6-5.4c-0.7-3.6,0-4.2,1.1-1c0.4,1.1,1.4,2.1,2.1,2.1c1,0,1.3,1,1.3,4.1   c0,2.3,0.4,4.4,0.9,4.7c0.8,0.5,0.6-4.5-0.4-9.3c-0.5-2.3-2.9-7-5.2-10.1c-1.6-2.1-1.7-2.6-0.6-2.2c0.9,0.3,1.2,0.2,0.9-0.3   c-0.8-1.3-7.1-2.1-8.8-1.2c-1.1,0.6-0.8,0.8,1.3,0.7c3.1-0.1,6.6,3,9.3,8.4c1.9,3.7,2,4.3,1.1,4.3c-0.3,0-1.1-1.2-1.8-2.6   c-0.9-1.9-1.3-2.3-1.9-1.5c-0.6,0.9-0.7,0.9-0.8-0.1c-0.1-0.7-0.1-1.6,0-1.9s-0.7-1.8-1.6-3.2c-1.4-2-2.3-2.4-4.6-2.3   c-1.5,0.1-2.6,0.5-2.4,0.9s0,1.3-0.6,1.9c-1.3,1.5-0.8,1.5,2.2,0c2.1-1.1,2.5-1.1,3.6,0.2c2.3,2.5,3.6,6.3,3.9,11.7   c0.2,3.7,0,5.2-0.7,5.2c-0.8,0-0.8,0.2-0.1,1s1.3,0.7,2.2,0c1-0.8,1.3-0.6,1.6,1c0.2,1.1,0.1,2.7-0.3,3.6c-0.6,1.4-0.6,1.4-0.7-0.5   c-0.1-2.1-0.1-2-1.3,0.4c-0.6,1.4-1.5,3-1.9,3.6c-0.9,1.2-8.5,2.4-8.6,1.3c0-1.3-4.8-6.1-5.4-5.5c-0.4,0.3-0.4,0.2-0.2-0.3   s-0.1-2-0.8-3.3c-1.7-3.2-2-4.8-2.4-10.8c-0.5-9.3,4.7-17.6,12.3-19.5c2.9-0.7,4.1-0.6,7.2,0.8c2,0.9,3.9,1.4,4.1,1.2   s0.3-0.5,0.1-0.6c-4-2.4-6.3-3.1-9.8-3.1c-3.7,0-4.6,0.4-8,3.4c-2.6,2.3-3.9,3-3.9,2.1c0-0.7,2.1-2.7,4.6-4.4   c4.3-2.9,4.9-3,9.6-2.6c4,0.4,5.2,0.2,5.8-0.9c0.7-1.2,1-1.2,3,0.1c1.2,0.8,2.5,1.3,2.7,1c0.6-0.6,5.2,1.9,5.2,2.8   c0,1.2-1.5,1-1.9-0.2c-0.3-0.8-0.7-0.7-1.7,0.3c-1.2,1.2-1,1.7,2.3,5.2c2.8,3,4.1,5.4,5.8,10.8c1.2,3.8,2.2,7.4,2.2,7.9   s0.3,1,0.7,1c1,0,0.9-2.7-0.1-4c-0.5-0.6-0.6-1-0.3-1s-0.2-1.7-1.1-3.8c-1.5-3.5-1.5-4.1,0.3-3.8c0.7,0.1,0.5-1-0.7-4.5   c-0.6-1.6-0.6-1.6,0.7,0c1.5,1.8,1.7,4.3,0.5,5.1c-0.5,0.3-0.4,1.3,0.3,2.8c1.6,3.1,3,8.7,3.2,12.2c0.1,1.6,0.5,3,0.9,3   c0.9,0,0.1-7.6-1.2-10.8c-0.5-1.2-1-2.7-1.1-3.4s-0.5-1.9-0.8-2.7c-0.3-0.8-0.2-1.5,0.3-1.5c0.5,0,0.7-0.7,0.4-1.5   c-1-3.2,2.4,1.9,5.1,7.7c3.8,8.1,2.7,8.7-1.3,0.7c-3.6-7.2-4.4-7.8-1.4-0.9c1.1,2.4,2,4.6,2,4.8s0.3,1,0.5,1.7s0.8,2.6,1.3,4.2   c0.7,2.2,0.8,2.4,0.6,0.6c-0.2-1.3,0-2.5,0.4-2.7c1-0.6,2.7,8.5,2.8,14.8c0,3.1,0.4,5.6,0.7,5.6s0.6,0.4,0.6,0.9s-0.9,0.7-2.1,0.5   c-1.7-0.3-2.1,0-2.1,1.4c0,1-1,3-2.1,4.5s-1.8,2.8-1.5,2.8c1.2,0,2.4-1.2,3-2.8c0.3-0.9,1-1.3,1.5-0.9c0.9,0.5-6,7.9-10.5,11.2   c-1.6,1.2-1.6,1.2-0.2-0.5c1.8-2.2,1.9-2.9,0.1-2.3c-1.5,0.6-1.1-0.6,1.2-3.3c0.7-0.8,1-1.7,0.7-2s-1.1,0.2-1.9,1   c-1.4,1.8-1.3,1.4,0.8-3.4c1.8-4.1,2.3-6,2.5-9.4c0.1-1.5,0.4-2.7,0.8-2.7c1.1,0,0,7.8-1.5,10.7c-1.1,2.2-1.1,2.6,0.2,3.9   c1.3,1.3,1.3,1.5,0,2.5c-1.8,1.3-1.9,2.2-0.2,2.2c0.7,0,1.3-0.5,1.3-1.2s0.5-1.4,1-1.7c0.8-0.4,0.8-0.6,0-1   c-0.7-0.3-0.4-1.3,1.1-3.2c1.3-1.7,1.9-3.3,1.6-4.3c-0.4-1.3-0.4-1.4,0.4-0.3c0.8,1.1,0.9,1.1,0.9-0.2c0-0.8-0.4-1.5-0.8-1.5   s-0.8-0.3-0.8-0.8s0.7-0.7,1.5-0.5s1,0.1,0.4-0.1c-1.5-0.5-1.1-11.9,0.4-11.9c0.6,0,1.1-0.6,1.1-1.3s-0.5-1.2-1-1   c-0.6,0.2-1.5-0.8-2.1-2.2c-1-2.5-1-2.5-0.6,1.2c0.4,3.6,0.4,3.7-0.8,1.7s-1.2-1.9-0.9,2.1c0.4,5.9,0.6,6.2,1.4,2.9   c0.4-1.8,0.5,0.4,0.3,5.8c-0.3,7.3-0.7,9-2.1,10.4l-1.7,1.7l1-2.5c1.6-4.2,2.4-11.4,1.2-11.8c-0.5-0.2-1.1-2.1-1.1-4.3   s-0.3-4.5-0.4-5.2s-0.6-2.5-0.9-4s-0.9-2.7-1.3-2.7s-0.3,1.1,0.2,2.4c0.5,1.3,0.7,3.5,0.6,4.8c-0.2,1.7-0.7,0.7-1.7-3.8   c-0.8-3.4-1.2-6.5-1-6.9s0.1-0.7-0.4-0.7s-0.9-1.3-0.9-2.9s-0.3-3.1-0.7-3.3s-1-1.5-1.3-2.7c-0.7-2.9-8-12.1-10.8-13.6   c-3.1-1.6-3.6-0.5-0.6,1.3c1.4,0.8,2.3,1.8,2.1,2.2s0.2,0.7,0.9,0.7s1.3,0.3,1.3,0.6s1.2,1.9,2.7,3.6s2.9,3.5,3,4.2s1,3.5,1.7,6.3   s1.3,5.5,1.1,6s0.1,1.2,0.6,1.5s0.9,0.9,0.9,1.4c0,0.6-0.5,0.5-1.3-0.2c-0.7-0.6-1.3-1.6-1.3-2.3s-0.8-3-1.8-5.1s-2.1-4.6-2.5-5.5   c-0.7-1.6-0.7-1.6,0.3-0.1c3,4.3,3.1,4.4,2.5,2.2c-0.3-1.1-1.1-2.8-1.6-3.8c-0.8-1.4-1.2-1.5-1.8-0.5c-0.9,1.4-0.2,3.9,3.4,11.1   c0.4,0.8,0.7,2.1,0.7,2.9s0.9,2.2,2.1,3.1c1.5,1.2,2.2,2.9,2.6,5.7c0.3,2.5,0.2,4-0.3,4c-0.5,0-0.8-0.7-0.8-1.5   c0-4.3-0.4-6.1-1.6-7.3c-0.7-0.7-1.6-1.1-1.9-0.8s0,0.8,0.7,1.2c1.6,1,1.8,12.2,0.3,11.9c-0.6-0.1-1,0.2-1,0.6s0.4,0.8,0.8,0.8   s0.8,0.8,0.8,1.7c0,2.4-2.5,10.9-3.6,12.3c-0.5,0.6-0.5,1-0.1,0.8c0.8-0.3,1.2,0.4,1.2,1.7c0,0.8-6.4,5.5-8.7,6.3   C73,1040,72.9,1039.9,73.8,1038.8L73.8,1038.8z M99.6,1017.7c-0.1-0.8,0-1.9,0.4-2.4s0.3-1.9-0.2-3s-0.6-2.3-0.3-2.6   s0.1-0.5-0.5-0.5c-1.2,0-1.3,3-0.1,3.8c0.5,0.3,0.6,0.9,0.4,1.3s-0.9,0.5-1.4,0.2c-0.5-0.3-0.7-0.1-0.4,0.6c0.3,0.6,0.8,1.8,1,2.6   s0.7,1.5,0.9,1.5S99.7,1018.5,99.6,1017.7L99.6,1017.7z M80.1,982.9c0.5-0.5,0.2-0.5-0.7-0.2c-1.2,0.4-1.4,0.2-1.1-0.7   c0.3-0.7-0.6-2.3-2.1-3.8c-3.2-3.2-4-2.7-1.3,1c1.1,1.5,2.3,3.5,2.6,4.4c0.3,0.9,0.8,1.3,1.2,0.8C79,984.1,79.7,983.3,80.1,982.9z    M78.6,972.4c0.2,0,0.2-0.3-0.1-0.8s-1.2-0.6-2-0.3s-1.8,0-2.1-0.5s-1-0.9-1.6-0.9s-0.1,0.8,1.1,1.7s2.6,1.5,3.2,1.2   S78.3,972.4,78.6,972.4L78.6,972.4z M66.8,1036.7c-0.3-0.5,0.3-0.8,1.2-0.8s1.7,0.4,1.7,0.8s-0.5,0.8-1.2,0.8   S67,1037.2,66.8,1036.7z M93,1036.3c0.6-0.7,1.6-1.3,2.2-1.3s1.1-0.3,0.9-0.7c-0.2-0.8,3.4-4.3,4.4-4.3c1,0-5.4,6.4-7,7   C92.2,1037.5,92.1,1037.4,93,1036.3z M62.6,1035c-0.8-1.2-0.5-1.4,4.4-1.8c4.7-0.4,5.5-0.2,2.5,0.9   C65.6,1035.5,63.1,1035.8,62.6,1035z M57.4,1034.2c-1-0.4-1.9-1-1.9-1.2c0-0.9,3.1-0.4,4.6,0.8C62,1035.2,60.5,1035.4,57.4,1034.2   L57.4,1034.2z M52.1,1031.3c-1.1-1.4-0.2-1.6,1.6-0.5c0.7,0.4,0.8,0.9,0.3,1.2C53.5,1032.3,52.7,1031.9,52.1,1031.3L52.1,1031.3z    M57.6,1031.3c-1.4-0.6-3.7-2.1-5.3-3.4c-1.7-1.4-2.7-1.9-2.6-1.2c0.1,0.6,0.1,1.9,0.1,2.7c-0.1,1.3-0.3,1.4-1.4,0.5   c-1-0.8-1-1.2-0.3-1.7c0.7-0.4,0.3-1.3-1.3-2.8c-1.3-1.2-2.1-2.2-1.7-2.2s-0.2-1-1.2-2.3c-1.5-1.9-4.2-7.2-4.2-8.2   c0-0.2,0.4-0.3,0.8-0.3s1.1,1,1.4,2.1s1.9,4.1,3.5,6.5c3.6,5.4,3.4,5.1,4,4.5c0.3-0.3-0.7-2.3-2.2-4.5c-3.4-5-5.9-11.2-4.6-11.2   c0.4,0,2.4,4.4,2.9,6.3c0.1,0.5,0.9,1.8,1.8,3.1s1.6,2.5,1.6,2.8c0,1.1,2.5,3,3.2,2.6c0.4-0.3,1.7,0.3,2.9,1.2   c2.3,1.8,3.9,2.1,3.9,0.8c0-0.9,2.9-0.7,3.9,0.3c0.4,0.4-0.1,0.5-1,0.4s-1.7,0.1-1.7,0.5c0,0.9,0.3,1,4.2,1.2   c2.2,0.1,2.3,0.2,0.8,0.9c-1.4,0.6-1.2,0.7,1,0.8c1.5,0,2.7,0.5,2.7,1c0,1.1-5.3,0.1-5.7-1c-0.2-0.4-1.1-0.7-2.1-0.7   c-1.3,0-1.5,0.2-0.7,0.7C62.3,1032,60.2,1032.4,57.6,1031.3L57.6,1031.3z M59.2,1030c0.4-0.7-1.1-1.6-6.7-4.1   c-0.5-0.2,0.1,0.6,1.2,1.8s2.3,2,2.7,1.8s0.9,0,1.2,0.4C58.2,1031.1,58.6,1031.1,59.2,1030z M74.5,1030.3c1.5-1.2,2.7-2.7,2.7-3.3   c0-0.8,0.5-1.1,1.5-0.8c1.2,0.4,1.7-0.1,2.4-2.2c0.7-2.2,0.9-2.4,1-0.8c0,1.1-0.4,2.9-1.1,4.2c-1.4,2.8-4.7,5.8-4.7,4.4   c0-0.6-0.4-0.7-1-0.4C72.7,1033,72.1,1032.2,74.5,1030.3L74.5,1030.3z M78.9,1028.8c1.1-1.5,1.1-1.6-0.2-0.5   c-0.8,0.6-1.5,1.5-1.5,2s0.1,0.7,0.2,0.5S78.2,1029.7,78.9,1028.8z M84.4,1030.4c-0.3-1.3-0.2-2.7,0.3-3.1c0.5-0.5,0.9-1.8,0.9-3   s0.4-2.7,0.8-3.4c1.4-2.2,1,3.4-0.4,6.2c-1,1.9-1.1,2.6-0.2,3.1c0.8,0.5,0.8,0.9,0.1,1.6S84.8,1032,84.4,1030.4z M69.7,1030.9   c0-0.5-0.5-0.8-1.1-0.8c-1.3,0-1.5-3.3-0.2-3.5l1.7-0.2c1.9-0.3,4.6-2.6,4.6-4c0-1.7,1.1-1.9,3.5-0.6c1.3,0.7,1.6,0.7,1.1,0   c-0.6-1,1-6.6,2.3-8c0.5-0.5,0.6-0.3,0.3,0.5c-0.3,0.8-0.9,3.7-1.5,6.5c-0.6,2.9-1.3,4.7-1.6,4.2c-0.5-0.8-0.8-0.8-1.2,0   c-0.3,0.5-1.1,0.8-1.7,0.6s-1.9,0.4-2.9,1.3c-1.4,1.3-2,1.5-2.5,0.7c-0.5-0.7-0.8-0.8-1.2-0.1c-0.3,0.5-0.3,0.9,0.1,0.9   s0.8,0.8,0.8,1.7s0,1.7-0.2,1.7S69.7,1031.3,69.7,1030.9L69.7,1030.9z M77.5,1022.3c-0.3-0.5-0.8-0.4-1.2,0.3   c-1.1,1.8-0.9,2.7,0.5,1.6C77.5,1023.6,77.8,1022.8,77.5,1022.3L77.5,1022.3z M71.4,1030.3c0-0.6,3.6-3.6,4.4-3.6   c0.3,0,0.4,0.5,0.2,1.1C75.4,1029,71.4,1031.2,71.4,1030.3L71.4,1030.3z M64.3,1027.5c-0.3-0.5-0.1-0.8,0.3-0.8s1.1,0.4,1.4,0.8   s0.1,0.8-0.3,0.8S64.5,1028,64.3,1027.5z M87.2,1027.6c0-0.5,0.4-1.1,0.8-1.4s0.8-0.1,0.8,0.3s-0.4,1.1-0.8,1.4   S87.2,1028.1,87.2,1027.6z M38.8,1026.2c0-0.7,0.4-1.1,0.8-0.8s0.8,0.9,0.8,1.3s-0.4,0.8-0.8,0.8S38.8,1026.9,38.8,1026.2z    M44.1,1025.5c-6.9-9.3-8.6-12.2-7-12.2c0.4,0,1.4,1.4,2.2,3.1s1.7,3.3,1.9,3.5c1.4,1.3,5.2,6.9,4.8,7.2   C45.8,1027.4,45,1026.7,44.1,1025.5L44.1,1025.5z M101.5,1026.3c0-0.9,0.2-1.4,0.4-1.1s0.3,1,0.1,1.6   C101.7,1027.5,101.5,1027.3,101.5,1026.3L101.5,1026.3z M55.5,1024.6c-0.6-0.7-1.4-1-1.8-0.8c-0.4,0.3-0.7-0.1-0.7-0.8   c0-1.7,0.1-1.7,3,0.8c1.3,1.1,2,2.1,1.5,2.1S56.1,1025.3,55.5,1024.6L55.5,1024.6z M98.9,1025.5c0-0.2,0.6-0.8,1.3-1.4   c1.1-0.9,1.2-0.8,0.7,0.3C100.5,1025.6,98.9,1026.5,98.9,1025.5L98.9,1025.5z M88.3,1023.6c1.1-3.9,1.5-10.4,0.6-9.9   c-0.5,0.3-0.9,1.7-0.9,3.1s-0.3,2.3-0.7,2.1c-1.1-0.7-0.1-6.4,1.2-6.4c0.6,0,1.2-0.8,1.2-1.7s0.3-1.7,0.7-1.7   c0.7,0,0.5,7.1-0.2,10.4c-0.2,0.9-0.4,2.5-0.4,3.5c0,1-0.5,1.9-1,1.9S88.1,1024.4,88.3,1023.6z M36.6,1022.9   c-0.3-0.7-0.3-1.5-0.1-1.7s0.6,0.4,0.9,1.3C37.9,1024.5,37.3,1024.8,36.6,1022.9L36.6,1022.9z M39.4,1022.8   c-0.3-0.3-0.6-0.9-0.6-1.4c0-0.5,0.4-0.5,1,0.1c0.5,0.5,0.8,1.2,0.6,1.4S39.7,1023.1,39.4,1022.8L39.4,1022.8z M47.7,1017.3   c-1.3-1.9-2.3-4.1-2.3-4.9s-0.3-1.6-0.6-1.9s-0.7-1.2-0.8-1.9c-0.3-2.1,0.8-0.3,3,4.7c1.1,2.5,2.7,5.2,3.6,6.1   c1.1,1,1.3,1.5,0.5,1.5C50.5,1020.8,49,1019.3,47.7,1017.3z M36.7,1018.3c-0.3-0.5-0.1-0.8,0.4-0.8s0.9,0.4,0.9,0.8   s-0.2,0.8-0.4,0.8S37,1018.8,36.7,1018.3L36.7,1018.3z M102.2,1018c0-1.5,0.5-1.7,1.2-0.5c0.3,0.4,0.1,1-0.4,1.3   S102.2,1018.7,102.2,1018z M34.2,1016.7c-0.3-0.4-0.1-1,0.4-1.3s0.8,0.1,0.8,0.8C35.5,1017.7,35,1017.9,34.2,1016.7z M59.7,1015.7   c-4.7-1.8-6.7-3.7-9.7-9.2c-1-1.8-2-2.9-2.3-2.4c-0.9,1.5-1.9,1-2.3-1.2c-0.2-1.1-0.1-2.1,0.3-2.1s0.7,0.6,0.7,1.3s0.4,1.3,0.8,1.3   c1.1,0,1.1-1.8,0-4.5c-0.4-1.2-1.4-2.1-2.1-2.1c-1,0-1.2-0.5-0.7-2.3c0.3-1.3,0.9-2.4,1.3-2.6c1.1-0.5,0.8-1.8-0.4-1.8   c-1.2,0-2.2,2.4-2.2,5.6c0,1-0.4,1.9-0.8,1.9s-0.7-0.7-0.6-1.5c1.3-7,1.6-7.5,3-7.1c0.8,0.2,1.5-0.1,1.5-0.7c0-1.8,3.7-9.9,4.5-9.9   c1.1,0,0.9,1.3-0.4,2.4c-1.1,0.9-2.7,6.8-2,7.4c0.2,0.1-0.3,0.6-1,1c-0.7,0.5-0.8,0.8-0.3,0.8s0.9,1.2,0.9,2.7   c-0.4,10.7,6.2,20.8,14.4,22.3c1.8,0.3,3.3,0.4,3.4,0.1c0.1-1.2,4-5.2,4.4-4.5c0.3,0.4-0.5,1.8-1.6,3s-1.8,2.2-1.4,2.3   s0.1,0.4-0.6,0.8C64.8,1017.7,65.1,1017.7,59.7,1015.7L59.7,1015.7z M46,993.1c-0.2-0.6-0.4-0.1-0.4,1s0.2,1.6,0.4,1   S46.3,993.7,46,993.1z M33,1012.1c-1-2.8-1.1-4.7-0.1-4.7c0.8,0,2,5.9,1.4,6.5C34,1014.2,33.4,1013.4,33,1012.1L33,1012.1z    M74.4,1012.7c-0.8-1.4,0.5-6.9,1.5-6.9c0.8,0,0.9,0.6,0.5,2.3c-0.4,1.3-0.5,2.7-0.3,3.3C76.5,1012.5,75,1013.7,74.4,1012.7z    M102.7,1012.3c-0.5-1.6-1.6-7.6-1.7-9c-0.1-2.1-3-10.2-5.1-14.4c-1.1-2.2-3.7-5.8-5.7-8.2s-3.7-4.7-3.7-5.2s1.7,0.9,3.7,3.2   s3.7,3.7,3.7,3.2s-0.4-1.2-0.8-1.5s-0.8-0.9-0.8-1.4c0-0.6,0.5-0.5,1.3,0.2c0.7,0.6,1.3,1.6,1.3,2.2s0.3,1,0.7,0.8s1.5,1.1,2.6,2.9   s2.1,3.3,2.5,3.3s1.1,0.9,1.7,2.1s1.5,1.8,1.9,1.5s0.6-0.2,0.3,0.3s0,1.8,0.7,3.1s0.8,2.2,0.3,2.2s-1-0.7-1.3-1.5   c-0.7-2-9.6-13.7-10.1-13.2c-0.2,0.2,0.4,1.4,1.3,2.7s2.3,3.4,3,4.7s1.7,2.1,2.1,1.9s1.1,1.2,1.7,3.1s1.5,3.8,2,4.1   c0.7,0.4,0.6,0.6-0.1,0.6c-1,0-1.8-1.4-3.1-5.3c-0.3-0.9-0.7-1.4-0.9-1.2s0.4,3.4,1.3,7s1.8,8,2,9.7   C103.7,1013.3,103.3,1014.3,102.7,1012.3L102.7,1012.3z M36,1011.9c-0.3-0.3-0.5-1.3-0.5-2.3c0-1.4,0.2-1.5,0.8-0.5   c0.7,1,0.9,0.9,1.4-0.7l0.5-2l1.1,2c1.3,2.4,1.4,3.2,0.3,3.2c-0.5,0-0.8-0.6-0.8-1.3s-0.4-1.1-0.8-0.8s-0.6,0.8-0.4,1.2   C38.1,1011.7,36.7,1012.7,36,1011.9L36,1011.9z M77.6,1009.1c-0.3-0.5-0.2-1.3,0.3-1.8c0.6-0.6,0.8-0.4,0.8,0.9   C78.5,1010.2,78.4,1010.3,77.6,1009.1L77.6,1009.1z M41.2,1008.9c-0.4-1.1-0.9-3.9-1-5.4c-0.1-1-0.4-1.9-0.6-1.9s-0.5-3-0.7-6.7   s0-6.7,0.4-6.7s0.7,2.6,0.8,5.8c0.1,5.1,1,10.1,2.5,13.9c0.3,0.7,0,1.2-0.5,1.2S41.3,1009.1,41.2,1008.9L41.2,1008.9z M37,1004.4   c-0.2-0.8-0.1-2.8,0.2-4.4c0.3-1.6,0.6-2.1,0.7-1.1c0.1,1,0.3,2.9,0.6,4.4C39,1005.9,37.6,1007,37,1004.4z M43.1,1003.7   c-0.5-1.1-0.6-2.1-0.2-2.1c0.7,0,1.9,3.4,1.4,3.9C44.2,1005.7,43.6,1004.9,43.1,1003.7L43.1,1003.7z M31.9,1003.9   c-0.9-2.4-0.8-3.6,0.3-2.5c0.5,0.5,0.8,1.6,0.6,2.5C32.5,1005.3,32.5,1005.3,31.9,1003.9L31.9,1003.9z M34.7,1005   c-0.1-0.2-0.4-1.9-0.6-3.8c-0.4-2.5-0.2-3.1,0.5-2.4c0.5,0.5,0.8,2.2,0.6,3.8S34.8,1005.2,34.7,1005z M28.8,1003   c0-0.9,0.2-1.4,0.4-1.1s0.3,1,0.1,1.6C29.1,1004.1,28.9,1003.9,28.8,1003L28.8,1003z M58.5,1002.3c-0.8-1.2-1-2-0.4-2.4   c0.5-0.3,0.7-1.4,0.6-2.5c-0.2-1.5,0.1-2,1.2-1.8c0.8,0.1,1.7-0.2,2-0.8c0.4-0.6,0.3-0.8-0.4-0.4c-1.5,0.9-2.1-1.9-0.9-4.2   c1.4-2.7,2-2.6,3.5,0.5c1.8,3.8,1,13.3-1.1,13.3c-0.5,0-0.6-0.3-0.4-0.8c0.5-0.8-1.7-3.4-2.9-3.4c-1.3,0-0.9,1.7,0.5,2.2   c0.7,0.3,1.3,0.8,1.3,1.2C61.3,1004.8,59.8,1004.2,58.5,1002.3L58.5,1002.3z M63.6,994.9c-0.5-5.7-1.5-6.6-2.7-2.7   c-0.5,1.5-0.3,1.8,0.7,1.4c1-0.4,1.3,0,1.3,1.5c0,2.7-0.8,3.3-2.3,1.8c-1.5-1.5-2.1-1.1-1.4,0.8c0.3,0.8,1.4,1.4,2.6,1.4   C64,999.1,64,999,63.6,994.9L63.6,994.9z M103.6,1003.6c-0.3-0.3-0.6-0.9-0.6-1.4c0-0.5,0.4-0.5,1,0.1c0.5,0.5,0.8,1.2,0.6,1.4   S103.9,1003.9,103.6,1003.6L103.6,1003.6z M42.1,999.6c0-1.5,0.5-1.7,1.2-0.5c0.3,0.4,0.1,1-0.4,1.3S42.1,1000.3,42.1,999.6z    M31.3,997.6c0-1.6,0.3-2.5,0.8-2.2c0.9,0.5,0.7,3.3-0.2,4.3C31.5,1000,31.3,999,31.3,997.6L31.3,997.6z M44.6,998.7   c0-0.7,0.4-1.1,0.8-0.8s0.8,0.9,0.8,1.3s-0.4,0.8-0.8,0.8S44.6,999.4,44.6,998.7z M53.4,999.2c0.3-0.4,0.1-0.9-0.4-1.1   s-0.8-2.2-0.8-4.5s0-5,0-6s0.4-1.9,0.8-1.9c0.5,0,0.7,2,0.6,5.2c-0.2,3.5,0.1,5.8,0.9,7.1c1.1,1.7,1,1.9-0.2,1.9   C53.5,1000,53.1,999.6,53.4,999.2z M56,998.6c-0.3-0.3-0.5-1.2-0.5-1.9c0-1.1,0.2-1,0.9,0.2C57.3,998.4,57.1,999.6,56,998.6   L56,998.6z M28.6,997.9c-0.3-0.3-0.3-1.2-0.1-1.9c0.4-1,0.2-1.1-0.7-0.6c-0.9,0.5-1,0.4-0.2-0.4c1.4-1.6,2.5-0.7,2,1.5   C29.4,997.6,28.9,998.2,28.6,997.9z M35.5,997.1c0-0.9,0.2-1.4,0.4-1.1s0.3,1,0.1,1.6C35.8,998.3,35.6,998.1,35.5,997.1L35.5,997.1   z M36.6,995.2c-0.4-0.8-0.7-3.1-0.8-5.1c0-2.2-0.6-3.9-1.3-4.4c-1-0.6-1-0.8,0.2-0.8c1.3,0,1.8-0.9,1.6-2.7   c-0.1-0.3,0.3-0.6,0.8-0.6s0.7,0.6,0.4,1.3s-0.7,2.2-1,3.3c-0.4,1.7-0.3,1.9,0.9,1.5c1.3-0.5,1.3-0.3,0.4,1.4   c-0.6,1.1-0.8,3.2-0.6,4.7C37.9,996.9,37.6,997.4,36.6,995.2z M54.9,993.3c-0.1-1.6,0.7-2.2,1.7-1.2c0.6,0.6-0.2,2.8-1,2.8   C55.3,995,55,994.2,54.9,993.3z M28.7,991.2c-0.2-3.5,0.1-5.7,0.8-6.5c0.4-0.4,0.5,1.1,0.3,3.3C29.4,993.2,29,994.4,28.7,991.2   L28.7,991.2z M33.5,991.3c-0.3-1.3-0.4-2.6-0.2-2.8c0.7-0.7,1.5,2,1.1,3.7C34.2,993.3,34,993.1,33.5,991.3z M40.9,990.8   c-0.3-0.5-0.1-0.8,0.4-0.8s0.9,0.4,0.9,0.8s-0.2,0.8-0.4,0.8S41.2,991.2,40.9,990.8L40.9,990.8z M25.4,989.2c0-0.4,0.4-1,0.8-1.3   s0.8,0.1,0.8,0.8s-0.4,1.3-0.8,1.3S25.4,989.6,25.4,989.2z M31.3,987.4c0-1.4,0.3-2.4,0.7-2.1c0.7,0.4,0.3,4.7-0.4,4.7   C31.4,990,31.3,988.8,31.3,987.4L31.3,987.4z M39.5,987.2c-0.4-2.5,0-4.7,1.2-7c1.6-3,1.7-3.6,0.7-3.6c-0.4,0-1.2,1-1.8,2.3   c-0.6,1.3-1.2,1.8-1.5,1.3c-0.6-1.5,2.7-5.3,3.7-4.3c0.5,0.5,1.2,0.1,1.9-1.3c0.6-1.2,1.4-2.1,1.8-2.1c1.1,0,0.8,1.4-0.5,2.4   c-1.6,1.3-3.9,6.4-4.3,9.4C40.5,986.7,39.7,988.4,39.5,987.2L39.5,987.2z M41.9,985.4c1.5-7.1,9-17.1,14.2-18.8   c3.5-1.2,3.3-1.8-0.4-1.1c-1.5,0.3-3.9,1.8-5.3,3.3c-2.7,2.9-4,3.5-4,2c0-0.5,0.6-0.8,1.3-0.8s1.3-0.4,1.3-0.8   c0-2.3-3.7,0.4-4.6,3.3c-0.3,0.9-1.1,1.7-1.8,1.7c-1.6,0-0.5-2,3.1-5.7c2.2-2.3,2.4-2.7,1.1-2.5c-1.7,0.3-7.1,7.4-9.3,12.3   c-0.7,1.5-1.5,2.6-1.7,2.4s0.1-1.5,0.8-2.8c0.7-1.3,1.3-2.7,1.4-3.2s1.1-1.9,2.2-3.2s2-2.8,2-3.4s0.8-1.5,1.9-2s3.2-1.7,4.8-2.7   c2.6-1.6,2.7-1.6,0.8-0.1c-3.6,2.9-1.5,2.5,4.2-0.8c3-1.8,4.9-3.2,4.2-3.2c-1.1,0-1.1-0.1,0-0.8c1-0.7,1-0.8-0.4-0.9   c-1.4-0.1-1.3-0.3,0.6-1.1c1.3-0.6,2-1.3,1.7-1.6s0-0.4,0.8-0.1c0.9,0.3,1.4,0.2,1.4-0.5c0-0.8,1.4-0.9,5.2-0.6   c4,0.3,4.8,0.2,3.3-0.4c-2.3-1.1-2.4-1.9-0.3-1.9c0.9,0,1.4,0.4,1.1,0.8s-0.1,0.6,0.3,0.3c1.6-1,6.4,0.7,7.1,2.5   c0.6,1.7,0.5,1.8-1.9,0.9c-1.9-0.7-2.7-0.6-3.2,0.2c-0.4,0.7-1.4,0.9-3,0.4c-2.3-0.6-7-0.5-11.3,0.3c-0.7,0.1-0.5,1.8,0.4,3.2   c0.3,0.5,0.1,1.2-0.4,1.4s0.3,0.4,1.9,0.3c1.9-0.1,2.9,0.2,2.7,0.9c-0.1,0.6,0.7,1,1.9,1c1.2,0,1.9-0.4,1.6-0.8   c-0.3-0.5,0-0.8,0.7-0.8c1.7,0,10.7,3.2,12,4.3c0.7,0.5,1.1,0.6,1.1,0.1c0-0.7-3.7-2.8-9.2-5.1c-1.8-0.8-1.6-0.8,1.2-0.4   c1.8,0.3,3.8,1,4.4,1.7s1.5,1.1,2,1.1s2.7,1.6,5,3.4s4.3,3.3,4.5,3c0.5-0.5-7.3-7.3-8.5-7.3c-0.5,0-1.3-0.4-1.9-1   c-1.4-1.4-6.9-3.2-10-3.2c-1.5,0-2.9-0.4-3.2-0.8c-1.3-2,11,0.9,15.4,3.7c4.7,3,14.2,12.1,14.2,13.6c0,0.9-0.5,0.7-1.7-0.7   c-0.9-1.1-2-2.5-2.5-3s-1.4-0.8-2.2-0.5c-0.8,0.3-2.4-0.6-4.2-2.3c-1.6-1.5-2.9-2.4-2.9-1.9s1.1,1.9,2.5,3.1s2.5,2.6,2.5,3.1   c0,0.5,0.7,0.7,1.7,0.3c1.3-0.4,2.5,0.2,4.9,2.8c1.8,1.8,3.4,3.1,3.7,2.9s0.1-1-0.4-1.6s-0.7-1.6-0.5-2.2c0.2-0.6,0.8-0.2,1.5,1.2   c0.6,1.3,1.3,2.3,1.6,2.3s1.8,1.7,3.3,3.8s2.4,3.8,2.1,3.8c-0.7,0-3.3-2.9-5.1-5.6c-0.7-1-1.6-1.7-2-1.4s0.1,1.6,1.1,3   c3.8,5.1,4.2,5.7,3.4,5.7c-0.4,0-1.9-1.6-3.4-3.5c-2.8-3.9-5.5-6.9-8.6-9.4l-2-1.7l2,2.3c1.1,1.3,1.8,2.5,1.5,2.8s-2.5-1.6-4.8-4.2   c-6.5-7.2-11.7-10.3-12.7-7.6c-0.3,0.8-0.1,1.3,0.5,1.2c0.6-0.1,1.6-0.1,2.3,0c1.8,0.1,8.4,5.9,8.1,7.1c-0.1,0.5,0.1,1.9,0.5,2.9   c1.2,3.4-1.2,3.9-3.9,0.8c-2.4-2.8-2.5-4.2-0.1-2.3c1.3,1,1.4,1,0.8-0.4c-0.4-1.2-0.3-1.4,0.7-1.1c2.2,0.9,1.3-0.6-2.2-3.4   c-3.5-2.8-4.9-3.3-4.9-1.8c0,0.5-0.8,0.3-1.8-0.4c-1-0.7-3.7-1.5-6-1.8c-3-0.4-3.7-0.7-2.5-1.1c0.9-0.3,2.8-0.3,4.1,0.1   c1.8,0.5,2.8,0.4,3.7-0.5c0.7-0.7,0.9-1.2,0.3-1.2c-0.5,0-1.1,0.4-1.3,1c-0.2,0.7-0.8,0.7-2.1,0c-1-0.5-3.1-1-4.8-1s-3-0.4-3-0.8   s-0.4-0.8-0.8-0.8s-0.6,0.7-0.3,1.5c0.5,1.4,0.4,1.4-1.1,0c-1.1-1-2-1.2-2.9-0.6c-0.9,0.6-1,0.8-0.1,0.8c0.6,0,1.6,0.5,2.3,1.2   c1,1,0.8,1.2-1.3,1.7c-2.5,0.5-7.4,3.5-8.5,5.3c-0.4,0.6-1.1,1.5-1.7,2.1c-1.1,1.2-3.1,4.5-3.1,5.2c0,0.2,0.4,0.4,0.8,0.4   s0.8-0.5,0.8-1c0-1.9,7-8.9,10.3-10.3c4.2-1.7,15.1-1.3,12.2,0.5c-0.6,0.3-2.1,0.3-3.5-0.1c-6-1.7-13.6,2.4-17.3,9.5   c-0.8,1.6-1.7,2.2-2.8,1.9c-1.1-0.3-1.8,0.2-2.3,1.8c-0.4,1.2-1.2,3-1.6,3.9C41.5,987.5,41.5,987.3,41.9,985.4L41.9,985.4z    M56.7,962.8c2.6-2,0.7-1.5-2.9,0.8c-1.8,1.1-3.7,2.1-4.2,2.1s-0.9,0.6-0.9,1.2C48.8,968.2,51.8,966.6,56.7,962.8z M66.6,954.3   c-0.6-0.2-1.5-0.2-2.1,0s-0.1,0.4,1,0.4S67.1,954.6,66.6,954.3L66.6,954.3z M44.1,984.9c0.5-1.4,1.2-2.5,1.6-2.5   c0.9,0,0.8,0.4-0.3,2.9C44,988.3,42.9,988,44.1,984.9z M26,983.7c0.3-0.7,1-1.3,1.7-1.3c1,0,1.1,0.2,0.2,1.3   c-0.6,0.7-1.4,1.3-1.7,1.3S25.7,984.4,26,983.7z M32.6,981.6c0.5-2.8,1.8-5.9,2.9-6.7c0.3-0.2,0.6-0.8,0.7-1.3s1.1-2.5,2.2-4.6   c1.5-2.8,3.7-4.8,8.1-7.7c3.3-2.2,6.6-4,7.3-4c1.1,0-1.1,1.5-4.6,3.2c-0.9,0.4-3.4,2.3-5.5,4.1c-3.5,3.1-5,5.6-10.7,17.7   C32.2,984.4,32.2,984.3,32.6,981.6L32.6,981.6z M34.2,983.3c-0.3-0.4-0.1-1,0.4-1.3s0.8,0.1,0.8,0.8   C35.5,984.3,35,984.5,34.2,983.3z M85.2,982.7c-0.7-1.8,0.2-2.7,1.2-1.1s1,2.5,0.1,2.5C86.1,984.1,85.5,983.5,85.2,982.7   L85.2,982.7z M29.6,981.9c0-0.4,0.6-1.5,1.2-2.4c1-1.4,1.2-1.4,1.3-0.3c0,0.7-0.5,1.8-1.2,2.4S29.6,982.3,29.6,981.9z M27.1,981   c0-0.5,0.6-1.3,1.3-1.9c0.7-0.6,1.3-0.7,1.3-0.2c0,0.5-0.6,1.3-1.3,1.9C27.7,981.3,27.1,981.4,27.1,981L27.1,981z M25.4,978.7   c0-1.5,2.3-5.9,4-7.7c0.6-0.6,1-1.6,1-2.3s0.7-1.5,1.5-2s1.2-1.1,0.9-1.3c-0.8-0.8-4.6,3.3-4.2,4.5c0.2,0.5-0.3,1-1,1   s-1.3,0.4-1.3,0.8s-0.4,0.8-0.9,0.8c-1.4,0,3-5.6,8.6-10.9c4.9-4.7,5.7-5.8,4-5.8c-0.5,0-0.6,0.4-0.3,1c0.3,0.6,0.2,0.7-0.3,0.4   c-0.5-0.3-3,1.9-5.7,4.8c-3.1,3.4-5.3,5.2-6,4.9c-1-0.4-1-0.6,0.2-1.2c0.8-0.4,3.8-3.2,6.7-6.1c3.8-3.8,5.5-5.1,6.2-4.4   s1.3,0.5,2.3-0.5c1.5-1.5,2.1-1.7,2.1-0.6c0,0.8-4.7,5.5-8.3,8.3c-1.1,0.9-1.8,1.9-1.5,2.2c0.7,0.7,8.9-6.3,9-7.8c0-0.6,0.9-1,2-1   c2.4,0,7.4-2.4,6.8-3.3c-0.4-0.6,4-2.1,8.6-3c1.1-0.2,2.2-0.6,2.5-0.9s-0.7-0.3-2.2,0c-1.9,0.4-2.6,0.2-2.2-0.4   c1-1.7,17.5,0.7,25.8,3.7c1.4,0.5,4.5,2.2,6.9,3.8c4.1,2.6,6.1,3.1,4.9,1.1c-1.2-1.9-15.2-7.8-22-9.3c-4-0.9-6.2-1.6-4.8-1.6   s4.9,0.5,7.9,1.2s5.9,1.3,6.5,1.4s1,0.4,1,0.8s0.5,0.7,1,0.7s2.1,0.6,3.5,1.3s2.8,1,3.1,0.6s-0.8-1.4-2.6-2.2s-3.3-1.8-3.3-2.1   s1.9,0.2,4.2,1.3s4.2,2.4,4.2,2.8s-0.3,0.6-0.8,0.4s-1-0.1-1.3,0.4s-0.2,0.8,0.2,0.8c1.1,0,4.4,3,4.4,3.9c0,0.4-0.4,1.2-1,1.8   c-0.8,0.8-1.6,0.5-3.5-0.9c-5.4-4-15.8-7.8-23.3-8.5c-2.1-0.2-4.3-0.6-4.7-0.9S63,948.5,63,949s-0.6,0.9-1.3,0.9s-1.3,0.4-1.3,0.8   c0,1,0.1,1,4.7,0.1c2.8-0.5,3.4-0.5,3,0.5c-0.2,0.6-1.1,1.1-1.8,1c-4.4-0.4-7.6,0.1-7.6,1.3c0,1.6-1.2,1.6-2.5,0   c-0.8-0.9-1.3-1-2-0.4s-0.6,1.1,0.3,1.6c0.9,0.6,0.6,0.9-1.3,1.3c-5.5,1.3-18.9,11.8-20.5,16c-1.1,3-0.8,4.2,0.5,1.8   c1.4-2.5,1.6-1.7,0.3,1.2c-0.7,1.6-1.2,1.9-1.7,1.1c-0.5-0.8-0.9-0.8-1.5,0.2c-0.4,0.7-1.1,1-1.4,0.6s-0.1-1.2,0.5-1.9   s0.8-1.3,0.5-1.3s0.1-0.8,0.9-1.8c2.4-3,11.1-11.7,11.1-11.2c0,0.3,0.5,0.1,1-0.3c2.5-2.1,7.5-5,8.6-5c1.2,0,1.8-1.7,0.6-1.7   c-1.8,0-11.7,5.9-15.2,9.2c-4.1,3.9-10.1,12.5-10.1,14.6c0,0.7-0.4,1.4-0.8,1.7S25.4,979.4,25.4,978.7L25.4,978.7z M58.8,951.6   c1-0.6,0.7-0.8-1-0.8c-1.3,0-2.3,0.4-2.3,0.8C55.5,952.6,57.2,952.6,58.8,951.6z M102,978.2c-0.8-0.9-1.3-1.6-1-1.6s-1.1-1.4-3-3.1   s-5-4.5-6.9-6.3s-5.9-4.7-8.9-6.5c-5.7-3.5-6-4.5-0.4-1.6c6,3.1,7,3.8,6.5,4.4c-0.3,0.3-0.2,0.6,0.3,0.6s1.2-0.4,1.6-0.8   c0.5-0.5,2.4,0.3,5.4,2.6c2.5,1.9,4.7,3.8,4.8,4.2s0.6,0.5,1,0.3s0.8,0.4,0.8,1.4v1.9l-2.2-2c-1.2-1.1-3.7-3.4-5.6-5.1   s-3.6-2.9-4-2.7c-0.6,0.4,4.8,6.2,5.7,6.2c0.2,0,1.7,1.5,3.4,3.3s3.3,3.2,3.5,3s0.5,0.6,0.6,1.7s0.1,2,0,1.9S102.8,979.1,102,978.2   L102,978.2z M62.2,965.7c0-0.5,0.4-0.8,0.8-0.8s0.8,0.4,0.8,0.8s-0.4,0.8-0.8,0.8S62.2,966.2,62.2,965.7z M97.1,965   c-1.1-0.9-4.6-3.3-7.8-5.4s-5.3-3.9-4.6-3.8s3.6,1.7,6.6,3.7s5.8,3.5,6.2,3.2s0.1-0.9-0.6-1.5c-1.2-0.9-1.2-1.1-0.1-1.5   c0.7-0.3,1.3,0,1.3,0.5c0.1,1.5,0.5,3.3,1.2,5C100.1,967,99.6,967,97.1,965z M26.3,962.8c0-1.1,5.6-7,9.5-10   c2.8-2.1,3.8-3.8,2.3-3.7c-0.3,0-2.9,2.1-5.6,4.6s-5.1,4.4-5.3,4.3c-0.6-0.6,5.9-7.2,7-7.2c0.6,0,0.9-0.3,0.7-0.8s0.3-1,1.2-1.3   s1.7-0.9,1.7-1.3s0.5-0.8,1.1-0.8s3-1,5.2-2.2c2.4-1.2,3.2-2,2-1.7c-4.3,0.9-9.6,3.8-13.2,7.1c-2,1.9-3.7,3.4-3.9,3.4   s-0.5-0.6-0.8-1.4s-0.3-1.2,0-0.9c0.7,0.7,3.7-0.8,3.7-2c0-0.5-0.4-0.6-1-0.3c-0.6,0.4-0.7,0.2-0.4-0.4c0.3-0.5,1.3-1,2.2-1   s1.6-0.3,1.6-0.8c0-0.6,7.3-3.7,12.7-5.4c0.8-0.2,1.5-1.1,1.4-1.9c0-1.2-0.2-1.3-0.8-0.3c-0.4,0.7-1.6,1.3-2.7,1.5   s-4.3,1.4-7.2,2.8s-5.2,2.1-5,1.6s0.6-0.7,0.9-0.6s1-0.3,1.4-1c0.8-1.3,8-4.2,10.3-4.2c0.8,0,1.3-0.4,1-0.8s0.5-1.1,1.8-1.4   c1.5-0.4,2.4-0.2,2.6,0.4c0.2,0.5,0.7,1,1.2,1s0.7-0.5,0.4-1.2c-0.3-0.7,0.3-1.4,1.4-1.7c2.9-0.8,3.6-0.5,2.1,0.6   c-0.8,0.6-1.8,2.1-2.3,3.3c-0.7,1.9-0.6,2.2,0.8,2.2c0.9,0,1.6-0.4,1.6-0.9s0.8-0.6,1.9-0.4s3.4,0.1,5.2-0.4l3.3-0.8l-4.4,0.3   c-4,0.3-5.9-0.5-3.3-1.4c0.6-0.2,0.1-0.2-1,0c-1.5,0.3-1.8,0.1-1.2-0.6c1.4-1.5,5.6-2,5.1-0.7c-0.3,0.7,0.2,1.2,1.1,1.2   c1,0.1,1.4-0.3,1.1-1.1c-0.3-0.7,0-1.2,0.5-1.2s1.2,0.6,1.4,1.2s0.9,1,1.3,0.7c0.5-0.3,0.4-0.8-0.3-1.2c-1.9-1.2,7,0.7,14.3,3   c0.2,0.1,1.9,0.8,3.8,1.6c5.2,2.4,2,2.4-3.8,0.1c-6.7-2.7-9.9-3.3-12.5-2.2l-2.1,0.8l2.1,0c3.5-0.1,10.6,1.7,14.1,3.5   c1.8,0.9,3.9,1.7,4.7,1.7s1.1,0.4,0.8,0.8c-0.3,0.5-1.5,0.3-3.1-0.5c-1.8-0.9-2.8-1.1-3.5-0.4s-0.5,0.9,0.5,0.9   c0.8,0,1.6,0.4,1.9,0.9c0.4,0.6,0,0.8-1,0.5c-7.2-2.2-15.4-3.2-22.8-2.8c-7.1,0.4-7.7,0.3-6.3-0.8c1.5-1.2,1.5-1.2-0.7-0.8   c-1.2,0.2-2.1,0.1-1.8-0.3s-0.3-0.7-1.3-0.7s-1.7,0.4-1.7,0.9s0.4,0.6,0.9,0.4s0.8,0,0.6,0.6s0.3,1,0.9,0.9s0.9,0.2,0.6,0.6   s-1.1,0.9-1.7,0.9s-1.2,0.4-1.2,0.9s-0.4,0.6-0.8,0.4s-1.8,0.3-3,1.2s-2.7,1.7-3.2,1.7s-1.5,0.6-2.1,1.3c-1.5,1.8-0.1,1.5,3.8-0.9   c3.8-2.3,5.3-2.7,3.8-0.8c-0.6,0.7-0.8,1.3-0.4,1.3s0.2,0.6-0.4,1.3s-1.4,1.3-1.9,1.3s-0.2-0.6,0.7-1.2c1.6-1.2,1.6-1.2,0-1.3   c-0.9,0-2.5,0.8-3.6,1.8c-1.7,1.6-2.1,1.7-2.7,0.6c-0.8-1.3-1.9-0.5-8.9,6.7C27.9,962,26.3,963.3,26.3,962.8L26.3,962.8z    M49.1,944.3c-1.5-0.5-10.7,4.1-9.9,5c0.3,0.3,2.8-0.7,5.6-2.1S49.6,944.4,49.1,944.3z M81.4,944.1c0-0.4-1.2-1-2.7-1.4   s-3.3-0.8-4-0.9c-2.6-0.6-16-0.2-17.3,0.5c-0.9,0.5,0.8,0.8,5.3,0.7c8.1-0.1,16,0.9,16.7,1.9C79.9,945.8,81.4,945.2,81.4,944.1   L81.4,944.1z M87.7,961.3c-4.7-2.8-7.4-4.8-6.8-4.8c1.3,0,9.7,4.5,9.7,5.2C90.6,962.6,89.6,962.5,87.7,961.3z M53,960.3   c0.6-0.7,1.4-1.3,1.9-1.3c0.5,0,0.4,0.6-0.2,1.3c-0.6,0.7-1.4,1.3-1.9,1.3C52.3,961.6,52.4,961,53,960.3z M64.3,959.9l-3.3-0.6   l3.5-0.1c2-0.1,3.5,0.3,3.5,0.7s-0.1,0.8-0.2,0.7S66.1,960.2,64.3,959.9z M60.5,957.9c0-0.2,0.9-0.5,2.1-0.7s2.1-0.1,2.1,0.3   s-0.9,0.7-2.1,0.7S60.5,958.1,60.5,957.9z M81,954.9c-0.9-0.3-1.2-0.8-0.8-1.1c0.9-0.5,3.5,0.7,2.8,1.3   C82.8,955.4,81.9,955.3,81,954.9L81,954.9z M48.1,951.4c0.9-1.7,4-3.2,5.2-2.6c0.4,0.2,0.9-0.4,1.1-1.4s0.5-1.8,0.6-1.8   s2.2-0.2,4.8-0.5c3-0.3,4.9-0.1,5.3,0.5c0.4,0.6-0.2,0.8-1.8,0.5c-3.3-0.6-7.8,0.3-7.8,1.6c0,1.3-2.1,2.4-5.6,2.8   c-0.6,0.1-0.8,0.6-0.6,1.2c0.2,0.6-0.1,1.1-0.8,1.1C47.5,952.9,47.4,952.6,48.1,951.4z M89.1,946.9c0.3-0.3,1-0.3,1.6-0.1   c0.7,0.3,0.5,0.5-0.5,0.5C89.3,947.3,88.8,947.1,89.1,946.9L89.1,946.9z M37.1,939c0.7-0.4,1.8-0.8,2.5-0.8c1.1,0,1.1,0.1,0,0.8   c-0.7,0.4-1.8,0.8-2.5,0.8C36,939.8,36,939.7,37.1,939z M80.5,937.8c-1.1-0.7-3.1-1.2-4.4-1.2s-2.3-0.4-2.3-1   c0-0.5-0.9-0.8-2.1-0.5c-1.2,0.2-2.3,0.1-2.5-0.2s-2.9-0.5-6-0.4c-3.3,0.1-5-0.1-4-0.4c0.9-0.4,5.5-0.7,10.3-0.8   c7.2-0.1,8.5,0.1,7.7,1c-0.8,0.9-0.3,1.3,2.2,1.8c1.7,0.4,3.4,0.6,3.7,0.5s0.8,0.4,1,1.1C84.8,939.3,83.3,939.3,80.5,937.8   L80.5,937.8z M41.3,937.8c0-0.3,1-0.9,2.1-1.3c1.3-0.5,1.9-1.2,1.5-1.8c-0.3-0.5-0.2-0.7,0.2-0.5c1.2,0.7,10.5-1.7,11.3-2.9   c0.5-0.8,0.9-0.9,1.7-0.1c1.1,1.1,0.8,1.3-8.4,4.2c-3,1-6.1,2-6.9,2.3S41.3,938.1,41.3,937.8z M59.1,931.4   c-0.1-1.5,0.2-1.7,2.5-1.2c6.8,1.3,11.1,1.1,10.1-0.4c-0.3-0.4-0.3-0.7,0-0.7s0.8,0.7,1.3,1.6c0.8,1.5,0.5,1.6-5,1.6   c-3.2,0-6.5,0.2-7.3,0.5C59.6,933.1,59.1,932.7,59.1,931.4L59.1,931.4z M49.2,931.1c3.6-1.1,6.1-1.1,5.4,0   c-0.2,0.4-2.3,0.8-4.6,0.9l-4.2,0.2L49.2,931.1L49.2,931.1z" class="st0"/></g></svg>